<svg width="604" height="128" viewBox="0 0 604 128" fill="none" xmlns="http://www.w3.org/2000/svg">
<path d="M590.855 98.2933H578.77L578.596 91.7725C575.466 97.0471 570.539 99.6844 563.816 99.6844C559.874 99.6844 556.367 98.699 553.295 96.7283C550.281 94.6996 547.905 91.9174 546.166 88.3816C544.427 84.8459 543.558 80.7885 543.558 76.2095C543.558 71.7464 544.485 67.7469 546.34 64.2112C548.195 60.6175 550.687 57.7774 553.817 55.6907C557.005 53.604 560.541 52.5607 564.424 52.5607C570.452 52.5607 575.031 54.9662 578.161 59.7771V27.8686H590.855V98.2933ZM567.554 88.3816C570.916 88.3816 573.64 87.2514 575.727 84.9908C577.814 82.6723 578.857 79.7162 578.857 76.1225C578.857 72.5289 577.814 69.6017 575.727 67.3412C573.64 65.0227 570.916 63.8634 567.554 63.8634C564.25 63.8634 561.555 65.0227 559.468 67.3412C557.382 69.6017 556.338 72.5289 556.338 76.1225C556.338 79.7162 557.382 82.6723 559.468 84.9908C561.555 87.2514 564.25 88.3816 567.554 88.3816Z" fill="black"/>
<path d="M495.9 53.9518H508.159L508.333 60.2987C509.492 57.8063 511.26 55.8936 513.637 54.5604C516.013 53.2273 518.766 52.5607 521.896 52.5607C526.939 52.5607 530.823 54.1837 533.547 57.4296C536.271 60.6175 537.633 65.2545 537.633 71.3406V98.2933H524.939V73.7751C524.939 67.1093 522.389 63.7765 517.288 63.7765C514.506 63.7765 512.361 64.7039 510.854 66.5587C509.347 68.4135 508.594 71.0508 508.594 74.4706V98.2933H495.9V53.9518Z" fill="black"/>
<path d="M446.222 53.9518H458.916V79.4264C458.916 85.3966 461.554 88.3817 466.828 88.3817C472.045 88.3817 474.653 85.3966 474.653 79.4264V53.9518H487.347V79.6873C487.347 86.1791 485.579 91.1349 482.043 94.5547C478.566 97.9745 473.494 99.6844 466.828 99.6844C460.162 99.6844 455.062 97.9745 451.526 94.5547C447.99 91.1349 446.222 86.1791 446.222 79.6873V53.9518Z" fill="black"/>
<path d="M416.168 99.6844C411.589 99.6844 407.474 98.67 403.822 96.6413C400.229 94.5547 397.388 91.7435 395.302 88.2078C393.215 84.672 392.172 80.6436 392.172 76.1225C392.172 71.6014 393.215 67.573 395.302 64.0373C397.446 60.5016 400.316 57.7194 403.909 55.6907C407.561 53.604 411.647 52.5607 416.168 52.5607C420.805 52.5607 424.921 53.604 428.514 55.6907C432.108 57.7194 434.948 60.5016 437.035 64.0373C439.122 67.573 440.165 71.6014 440.165 76.1225C440.165 80.5857 439.093 84.6141 436.948 88.2078C434.861 91.7435 432.021 94.5547 428.427 96.6413C424.834 98.67 420.747 99.6844 416.168 99.6844ZM427.471 76.1225C427.471 72.5289 426.428 69.6017 424.341 67.3412C422.254 65.0227 419.53 63.8634 416.168 63.8634C412.864 63.8634 410.169 65.0227 408.083 67.3412C405.996 69.6017 404.953 72.5289 404.953 76.1225C404.953 79.7162 405.996 82.6723 408.083 84.9908C410.169 87.2514 412.864 88.3816 416.168 88.3816C419.53 88.3816 422.254 87.2514 424.341 84.9908C426.428 82.6723 427.471 79.7162 427.471 76.1225Z" fill="black"/>
<path d="M362.005 53.9518H374.264L374.351 62.5593C375.394 59.6032 376.959 57.3136 379.046 55.6907C381.133 54.0098 383.567 53.1693 386.349 53.1693C387.277 53.1693 388.204 53.2563 389.131 53.4301C390.117 53.604 390.899 53.8359 391.479 54.1257L390.349 66.037C388.552 65.3415 386.668 64.9937 384.697 64.9937C381.509 64.9937 379.046 66.153 377.307 68.4715C375.568 70.732 374.699 74.0069 374.699 78.2961V98.2933H362.005V53.9518Z" fill="black"/>
<path d="M353.206 95.0763C353.206 103.365 351.09 109.654 346.859 113.943C342.628 118.232 336.397 120.377 328.166 120.377C326.021 120.377 323.848 120.203 321.645 119.855C319.443 119.508 317.385 119.044 315.472 118.464C313.617 117.943 312.11 117.334 310.951 116.638L312.342 106.031C314.197 107.133 316.458 108.002 319.124 108.64C321.79 109.335 324.311 109.683 326.688 109.683C336.194 109.683 340.947 105.017 340.947 95.6849V91.3377C339.44 93.8301 337.411 95.7719 334.861 97.163C332.368 98.4961 329.499 99.1627 326.253 99.1627C322.312 99.1627 318.805 98.1773 315.733 96.2066C312.661 94.2359 310.256 91.5116 308.517 88.0339C306.778 84.5561 305.908 80.5567 305.908 76.0356C305.908 71.5725 306.836 67.573 308.691 64.0373C310.545 60.5016 313.038 57.7194 316.168 55.6907C319.356 53.604 322.92 52.5607 326.862 52.5607C329.876 52.5607 332.6 53.2563 335.035 54.6474C337.527 55.9805 339.498 57.9223 340.947 60.4726L341.121 53.9518H353.206V95.0763ZM341.208 75.8617C341.208 72.268 340.164 69.3409 338.078 67.0804C335.991 64.7619 333.267 63.6026 329.905 63.6026C326.601 63.6026 323.906 64.7619 321.819 67.0804C319.732 69.3409 318.689 72.268 318.689 75.8617C318.689 79.4554 319.732 82.4115 321.819 84.73C323.906 86.9905 326.601 88.1208 329.905 88.1208C333.267 88.1208 335.991 86.9905 338.078 84.73C340.164 82.4115 341.208 79.4554 341.208 75.8617Z" fill="black"/>
<path d="M277.281 119.595H264.413L275.977 95.5111L257.371 53.9518H271.282L282.41 82.6434L292.931 53.9518H306.494L277.281 119.595Z" fill="black"/>
<path d="M253.527 98.2933H241.442L241.268 91.6855C238.254 97.0181 233.327 99.6844 226.488 99.6844C222.546 99.6844 219.04 98.699 215.968 96.7283C212.953 94.6996 210.577 91.9174 208.838 88.3816C207.099 84.8459 206.23 80.7885 206.23 76.2095C206.23 71.7464 207.157 67.7469 209.012 64.2112C210.867 60.6175 213.359 57.7774 216.489 55.6907C219.677 53.604 223.213 52.5607 227.096 52.5607C230.168 52.5607 232.951 53.2563 235.443 54.6474C237.935 56.0385 239.877 57.9802 241.268 60.4726L241.442 53.9518H253.527V98.2933ZM238.399 84.9908C240.486 82.6723 241.529 79.7162 241.529 76.1225C241.529 72.5289 240.486 69.6017 238.399 67.3412C236.312 65.0227 233.588 63.8634 230.226 63.8634C226.923 63.8634 224.227 65.0227 222.141 67.3412C220.054 69.6017 219.011 72.5289 219.011 76.1225C219.011 79.7162 220.054 82.6723 222.141 84.9908C224.227 87.2514 226.923 88.3816 230.226 88.3816C233.588 88.3816 236.312 87.2514 238.399 84.9908Z" fill="black"/>
<path d="M187.271 27.8686H199.964V98.2933H187.271V27.8686Z" fill="black"/>
<path d="M134.749 32.2158H157.007C161.991 32.2158 166.31 33.1143 169.961 34.9111C173.671 36.65 176.511 39.1424 178.482 42.3883C180.51 45.6342 181.525 49.4887 181.525 53.9518C181.525 58.415 180.51 62.2985 178.482 65.6023C176.511 68.8483 173.671 71.3696 169.961 73.1665C166.31 74.9054 161.962 75.7748 156.92 75.7748H148.051V98.2933H134.749V32.2158ZM154.833 65.3415C163.527 65.3415 167.875 61.5739 167.875 54.0388C167.875 46.5036 163.527 42.7361 154.833 42.7361H148.051V65.3415H154.833Z" fill="black"/>
<path fillRule="evenodd" clipRule="evenodd" d="M96.61 74.2341C98.9802 77.5785 101.093 80.8509 102.902 84.0003C109.575 95.6092 111.393 104.302 108.022 108.475C106.65 110.176 104.498 111.02 101.673 111.02C97.5622 111.02 92.0247 109.234 85.3665 105.703C74.3885 99.8831 61.5384 90.0032 49.1824 77.884C23.0445 52.2442 7.93856 25.5178 14.794 17.0332C18.1645 12.8601 26.212 13.8459 37.45 19.7953C43.5335 23.0203 50.1918 27.4989 57.0214 32.9065H102.131C103.351 32.9065 104.343 34.0309 104.343 35.4135V47.1012C104.343 48.487 103.354 49.6082 102.131 49.6082H49.3913C41.2436 49.6082 34.6398 42.1313 34.6398 32.9097H51.7125C48.4877 30.6011 45.3717 28.5949 42.4357 26.954C36.9469 23.8864 32.4671 22.3086 29.4339 22.3086C27.8187 22.3086 26.6123 22.7558 25.8804 23.6628C23.7706 26.2737 25.5488 32.7365 30.7633 41.3975C34.9457 48.3452 40.9635 56.1086 48.0933 63.8187C50.0887 60.1967 53.6366 57.7875 57.6847 57.7875H102.548C103.537 57.7875 104.34 58.6977 104.34 59.8188V72.2024C104.34 73.3236 103.537 74.2341 102.548 74.2341H96.61ZM97.2274 98.4407C98.8399 98.4407 100.038 97.9997 100.758 97.1086C102.868 94.4977 101.087 88.035 95.8725 79.374C94.8662 77.7047 93.754 75.9851 92.5477 74.2341H68.7769C66.6842 74.2341 64.986 76.155 64.986 78.5266V80.0732C79.1543 92.1386 91.1325 98.4407 97.2274 98.4407ZM46.3854 97.2344V79.7357C46.4927 79.8412 46.5988 79.948 46.7051 80.0549C46.8367 80.1873 46.9685 80.32 47.103 80.4507C53.0205 86.255 59.0527 91.5556 64.9818 96.1791V97.2344C64.9818 98.3555 64.1785 99.2657 63.1894 99.2657H48.1778C47.1887 99.2657 46.3854 98.3555 46.3854 97.2344Z" fill="black"/>
</svg>
