<svg xmlns="http://www.w3.org/2000/svg" version="1.1" xmlns:xlink="http://www.w3.org/1999/xlink" xmlns:svgjs="http://svgjs.dev/svgjs" width="128" height="128"><svg width="128" height="128" viewBox="0 0 128 128" fill="none" xmlns="http://www.w3.org/2000/svg">
<path fillrule="evenodd" cliprule="evenodd" d="M101.923 76.3682C104.476 79.9714 106.753 83.497 108.702 86.89C115.891 99.3971 117.85 108.762 114.218 113.258C112.74 115.091 110.421 116 107.378 116C102.949 116 96.9829 114.076 89.8095 110.272C77.9821 104.002 64.1378 93.3573 50.8258 80.3005C22.6656 52.677 6.39095 23.8828 13.7768 14.7417C17.4081 10.2458 26.0782 11.3078 38.1857 17.7175C44.7399 21.1921 51.9133 26.0171 59.2713 31.8432H107.871C109.186 31.8432 110.254 33.0545 110.254 34.5441V47.1361C110.254 48.6291 109.189 49.8371 107.871 49.8371H51.0509C42.2728 49.8371 35.1581 41.7817 35.1581 31.8465H53.5517C50.0774 29.3594 46.7203 27.1979 43.5572 25.4301C37.6436 22.1252 32.8173 20.4252 29.5494 20.4252C27.8092 20.4252 26.5094 20.907 25.7209 21.8843C23.4479 24.6972 25.3637 31.6599 30.9816 40.9911C35.4876 48.4764 41.971 56.8403 49.6525 65.147C51.8023 61.2447 55.6247 58.6492 59.986 58.6492H108.32C109.386 58.6492 110.251 59.6298 110.251 60.8377V74.1794C110.251 75.3873 109.386 76.3682 108.32 76.3682H101.923ZM102.588 102.448C104.325 102.448 105.616 101.973 106.392 101.012C108.665 98.1997 106.746 91.2369 101.128 81.9058C100.044 80.1074 98.8459 78.2547 97.5463 76.3682H71.9363C69.6817 76.3682 67.8521 78.4378 67.8521 80.9929V82.6591C83.1167 95.658 96.0216 102.448 102.588 102.448ZM47.8124 101.148V82.2955C47.928 82.4091 48.0424 82.5243 48.1568 82.6394C48.2986 82.782 48.4406 82.925 48.5855 83.0658C54.9609 89.3192 61.4598 95.0299 67.8476 100.011V101.148C67.8476 102.356 66.9822 103.337 65.9166 103.337H49.7435C48.6779 103.337 47.8124 102.356 47.8124 101.148Z" fill="black"></path>
</svg><style>@media (prefers-color-scheme: light) { :root { filter: none; } }
@media (prefers-color-scheme: dark) { :root { filter: none; } }
</style></svg>