<svg width="128" height="128" viewBox="0 0 128 128" fill="none" xmlns="http://www.w3.org/2000/svg">
<g clip-path="url(#clip0_1_5)">
<path fillRule="evenodd" clipRule="evenodd" d="M63.8391 12C34.0675 12 10 35.8333 10 65.3184C10 88.8874 25.4209 108.838 46.8137 115.899C49.4883 116.43 50.468 114.752 50.468 113.34C50.468 112.104 50.3799 107.867 50.3799 103.453C35.4031 106.631 32.2844 97.0969 32.2844 97.0969C29.8775 90.9176 26.3113 89.3294 26.3113 89.3294C21.4094 86.0632 26.6684 86.0632 26.6684 86.0632C32.1058 86.4163 34.959 91.5362 34.959 91.5362C39.7716 99.6568 47.5267 97.3623 50.6466 95.9497C51.0918 92.5068 52.5189 90.1235 54.0342 88.7997C42.0892 87.5636 29.5216 82.9735 29.5216 62.4931C29.5216 56.6669 31.6595 51.9002 35.0472 48.1931C34.5127 46.8692 32.6403 41.3952 35.5828 34.0686C35.5828 34.0686 40.1287 32.6559 50.3788 39.5416C54.7672 38.3745 59.2929 37.7807 63.8391 37.7757C68.385 37.7757 73.0191 38.3943 77.2983 39.5416C87.5495 32.6559 92.0954 34.0686 92.0954 34.0686C95.0379 41.3952 93.1644 46.8692 92.6299 48.1931C96.1068 51.9002 98.1567 56.6669 98.1567 62.4931C98.1567 82.9735 85.589 87.4747 73.5547 88.7997C75.5163 90.4767 77.2091 93.6541 77.2091 98.6862C77.2091 105.836 77.1209 111.575 77.1209 113.339C77.1209 114.752 78.1017 116.43 80.7753 115.9C102.168 108.837 117.589 88.8874 117.589 65.3184C117.677 35.8333 93.5215 12 63.8391 12Z" fill="black"/>
</g>
<defs>
<clipPath id="clip0_1_5">
<rect width="108" height="104" fill="white" transform="translate(10 12)"/>
</clipPath>
</defs>
</svg>
